<svg width="375" height="484" viewBox="0 0 375 484" fill="none" xmlns="http://www.w3.org/2000/svg">
    <path
        d="M-2.38293 85.0099H-6.37067L-11.2253 86.5351C-22.3217 138.582 -44.4103 246.03 -43.9942 259.451C-43.4741 276.228 -25.4425 276.8 -13.6526 289.002C-1.86279 301.203 50.6714 301.394 84.3072 307.113C117.943 312.832 209.835 316.455 245.378 320.077C273.812 322.975 352.469 294.848 388.243 280.423C390.323 221.831 393.236 104.418 388.243 103.503C382.001 102.359 377.32 103.121 373.852 105.79C362.929 79.8625 340.043 88.251 335.015 91.3013C332.796 88.4035 328.08 85.6455 325.999 84.6287C326.404 78.5915 324.82 63.2382 315.25 50.1217C296.178 27.2441 283.695 25.7189 265.316 25.5283C250.614 25.3758 236.997 35.8867 232.027 41.1613C214.863 30.8664 198.738 35.6326 196.311 35.6326C179.666 5.51044 150.365 -3.44994 122.798 1.12558C95.2302 5.70109 79.626 34.87 77.372 38.3016C71.4771 37.9203 64.7153 37.9203 59.6872 42.4958C19.0469 37.6152 1.37365 68.805 -2.38293 85.0099Z"
        fill="#FFE6A3" />
    <path
        d="M107.374 368.68C25.0734 359.536 -27.834 403.794 -44.0001 427.066L-4.14648 107L397.48 195.627L432.486 323.193C415.165 317.971 368.474 313.659 320.274 338.183C260.024 368.839 210.25 380.111 107.374 368.68Z"
        fill="#FFE6A3" />
</svg>
    