<svg width="220" height="208" viewBox="0 0 220 208" fill="none" xmlns="http://www.w3.org/2000/svg">
    <path d="M192.294 97.996C192.58 98.3319 192.792 98.724 192.916 99.1471C193.041 99.5701 193.075 100.015 193.017 100.452C192.959 100.889 192.81 101.309 192.579 101.685C192.349 102.061 192.042 102.384 191.678 102.634L176.314 113.184L169.548 117.696C169.164 117.952 168.698 118.056 168.241 117.988C167.785 117.919 167.37 117.683 167.077 117.326C166.907 117.117 166.783 116.874 166.716 116.614C166.648 116.353 166.638 116.081 166.686 115.816C166.735 115.551 166.84 115.299 166.994 115.079C167.149 114.858 167.35 114.674 167.583 114.539L174.135 110.733L185.572 99.8393L178.22 91.9411L183.666 87.8559L192.294 97.996Z" fill="#EFB585"/>
    <path d="M156.164 197.341H152.406L150.174 166.293L159.704 166.02L156.164 197.341Z" fill="#EFB585"/>
    <path d="M156.437 207.418C155.435 207.875 154.595 204.169 153.75 205C151.385 207.324 147.765 207.83 144.609 206.815L145.713 206.803C145.523 206.742 145.347 206.642 145.196 206.511C145.045 206.38 144.922 206.219 144.835 206.039C144.748 205.859 144.698 205.663 144.689 205.463C144.68 205.263 144.711 205.064 144.782 204.876C144.866 204.652 145.003 204.452 145.182 204.292C145.36 204.133 145.575 204.019 145.807 203.961L148.322 203.332L152.27 196.387L156.301 196.115C157.199 197.261 157.826 198.596 158.135 200.019C158.443 201.442 158.425 202.917 158.082 204.332C157.716 205.825 157.151 207.092 156.437 207.418Z" fill="#4B4B4C"/>
    <path d="M181.188 197.341H177.43L175.198 166.293L185 164.387L181.188 197.341Z" fill="#EFB585"/>
    <path d="M181.461 207.418C180.459 207.875 179.619 204.169 178.774 205C176.41 207.324 172.789 207.83 169.633 206.815L170.737 206.803C170.547 206.742 170.371 206.642 170.22 206.511C170.069 206.38 169.946 206.219 169.859 206.039C169.772 205.859 169.722 205.663 169.713 205.463C169.704 205.263 169.736 205.064 169.806 204.876C169.89 204.652 170.027 204.452 170.206 204.292C170.384 204.133 170.599 204.019 170.831 203.961L173.346 203.332L177.294 196.388L181.597 195.843L181.706 196.021C182.538 197.362 183.074 198.864 183.279 200.429C183.484 201.994 183.353 203.584 182.895 205.094C182.537 206.241 182.05 207.149 181.461 207.418Z" fill="#4B4B4C"/>
    <path d="M185.45 88.5582C181.993 89.0392 179.601 90.9324 178.626 94.709L172.273 82.9768C171.896 82.2312 171.801 81.3748 172.004 80.5645C172.208 79.7543 172.696 79.0444 173.38 78.565C174.106 78.0562 174.999 77.8443 175.876 77.9727C176.753 78.1011 177.548 78.5601 178.098 79.2557L185.45 88.5582Z" fill="#4FAE5A"/>
    <path d="M192.107 163.025C176.661 169.861 160.852 170.702 144.728 166.293C150.616 143.451 157.569 122.797 157.526 105.831L173.319 104.469L175.751 108.325C181.52 117.473 185.502 127.633 187.486 138.266L192.107 163.025Z" fill="#377E4F"/>
    <path d="M166.238 70.6978C170.75 70.6978 174.407 67.0398 174.407 62.5273C174.407 58.0149 170.75 54.3568 166.238 54.3568C161.727 54.3568 158.07 58.0149 158.07 62.5273C158.07 67.0398 161.727 70.6978 166.238 70.6978Z" fill="#EFB585"/>
    <path d="M175.224 76.9617L165.149 77.5064L163.516 68.5188L171.684 67.1573L175.224 76.9617Z" fill="#A0616A"/>
    <path d="M174.135 105.831L163.098 106.142L157.526 106.92C154.79 97.8831 152.487 88.8664 158.07 81.3195L164.605 74.7832L174.408 74.5108L174.538 74.585C176.094 75.4771 177.301 76.873 177.958 78.5427C178.616 80.2124 178.685 82.0563 178.154 83.7705C175.722 91.6771 174.159 99.1434 174.135 105.831Z" fill="#4FAE5A"/>
    <path d="M113.514 61.6049L104.651 58.5212C104.177 58.3561 103.778 58.025 103.528 57.589C103.278 57.1529 103.194 56.6413 103.291 56.1483C103.348 55.8643 103.462 55.595 103.628 55.3578C103.794 55.1205 104.008 54.9205 104.256 54.7704C104.503 54.6203 104.78 54.5234 105.067 54.486C105.354 54.4486 105.646 54.4714 105.924 54.553L114.712 57.1336L137.942 70.4055L153.13 74.7569L151.42 82.1918L133.935 76.943L113.514 61.6049Z" fill="#EFB585"/>
    <path d="M149.893 82.6286C151.999 79.8466 152.356 76.8165 150.377 73.4556L163.163 77.2694C163.956 77.5309 164.629 78.0694 165.058 78.7864C165.486 79.5033 165.642 80.3507 165.497 81.1732C165.342 82.0461 164.86 82.8269 164.148 83.3557C163.437 83.8845 162.55 84.1212 161.669 84.0174L149.893 82.6286Z" fill="#4FAE5A"/>
    <path d="M183.53 98.886H158.479C164.323 83.4079 166.207 69.0087 158.479 56.6717C158.612 52.9662 163.363 49.7539 167.053 50.1088C171.411 50.528 177.268 53.7312 178.084 58.0334L183.53 98.886Z" fill="#4B4B4C"/>
    <path d="M103.693 49.4286H102.55V18.1204C102.55 15.7408 102.082 13.3845 101.171 11.186C100.261 8.98753 98.9264 6.98996 97.2441 5.30733C95.5618 3.62469 93.5647 2.28996 91.3666 1.37933C89.1686 0.468699 86.8128 8.12778e-06 84.4337 1.52589e-05H18.1167C15.7376 1.00044e-05 13.3818 0.468704 11.1838 1.37934C8.98574 2.28997 6.98858 3.6247 5.30629 5.30733C3.624 6.98996 2.28954 8.98754 1.37909 11.186C0.468642 13.3845 4.31497e-05 15.7408 4.57764e-05 18.1204V189.88C4.39002e-05 192.259 0.468642 194.616 1.37909 196.814C2.28954 199.012 3.624 201.01 5.30629 202.693C6.98858 204.375 8.98574 205.71 11.1838 206.621C13.3818 207.531 15.7376 208 18.1167 208H84.4337C86.8128 208 89.1686 207.531 91.3666 206.621C93.5647 205.71 95.5618 204.375 97.2441 202.693C98.9264 201.01 100.261 199.012 101.171 196.814C102.082 194.616 102.55 192.259 102.55 189.88V71.7143H103.693V49.4286Z" fill="#3F3D56"/>
    <path d="M85.1645 4.71425H76.5079C76.906 5.69045 77.0579 6.74958 76.9504 7.79836C76.8428 8.84713 76.479 9.85335 75.8911 10.7284C75.3032 11.6034 74.5091 12.3204 73.5789 12.8162C72.6486 13.312 71.6107 13.5713 70.5567 13.5714H32.5645C31.5105 13.5713 30.4726 13.312 29.5423 12.8162C28.6121 12.3204 27.818 11.6034 27.2301 10.7284C26.6421 9.85336 26.2784 8.84713 26.1708 7.79836C26.0633 6.74958 26.2152 5.69045 26.6133 4.71425H18.5281C16.7514 4.71425 14.9921 5.06426 13.3506 5.74431C11.7092 6.42436 10.2177 7.42112 8.9614 8.67769C7.70509 9.93425 6.70853 11.426 6.02862 13.0678C5.34871 14.7096 4.99876 16.4692 4.99876 18.2463V189.754C4.99876 191.531 5.3487 193.29 6.02861 194.932C6.70852 196.574 7.70509 198.066 8.9614 199.322C10.2177 200.579 11.7092 201.576 13.3506 202.256C14.9921 202.936 16.7514 203.286 18.5281 203.286H85.1645C86.9412 203.286 88.7004 202.936 90.3419 202.256C91.9834 201.576 93.4748 200.579 94.7311 199.322C95.9874 198.066 96.984 196.574 97.6639 194.932C98.3438 193.29 98.6938 191.531 98.6938 189.754V18.2463C98.6938 14.6574 97.2683 11.2154 94.7311 8.67768C92.1939 6.13993 88.7527 4.71424 85.1645 4.71425Z" fill="white"/>
    <path fill-rule="evenodd" clip-rule="evenodd" d="M44.1333 46.8H37.8V53.1333H44.1333V46.8ZM34 43V56.9333H47.9333V43H34Z" fill="#E6E6E6"/>
    <path fill-rule="evenodd" clip-rule="evenodd" d="M68.2 46.8H61.8667V53.1333H68.2V46.8ZM58.0667 43V56.9333H72V43H58.0667Z" fill="#E6E6E6"/>
    <path fill-rule="evenodd" clip-rule="evenodd" d="M44.1333 70.8667H37.8V77.2H44.1333V70.8667ZM34 67.0667V81H47.9333V67.0667H34Z" fill="#E6E6E6"/>
    <path d="M50.4667 43H55.5333V50.6H50.4667V43Z" fill="#E6E6E6"/>
    <path d="M46.6667 50.6H50.4667V56.9333H46.6667V50.6Z" fill="#E6E6E6"/>
    <path d="M50.4667 55.6667H54.2667V59.4667H50.4667V55.6667Z" fill="#E6E6E6"/>
    <path d="M64.4 65.8H68.2V69.6H64.4V65.8Z" fill="#E6E6E6"/>
    <path d="M68.2 69.6H72V73.4H68.2V69.6Z" fill="#E6E6E6"/>
    <path d="M64.4 77.2H70.7333V81H64.4V77.2Z" fill="#E6E6E6"/>
    <path d="M53 77.2H60.6V81H53V77.2Z" fill="#E6E6E6"/>
    <path d="M56.8 73.4H68.2V77.2H56.8V73.4Z" fill="#E6E6E6"/>
    <path d="M45.4 73.4H53V77.2H45.4V73.4Z" fill="#E6E6E6"/>
    <path d="M55.5333 60.7333H60.6V68.3333H55.5333V60.7333Z" fill="#E6E6E6"/>
    <path d="M51.7333 65.8H56.8V73.4H51.7333V65.8Z" fill="#E6E6E6"/>
    <path d="M45.4 59.4667H51.7333V64.5333H45.4V59.4667Z" fill="#E6E6E6"/>
    <path d="M34 59.4667H42.8667V64.5333H34V59.4667Z" fill="#E6E6E6"/>
    <path d="M64.4 59.4667H69.4667V67.0667H64.4V59.4667Z" fill="#E6E6E6"/>
    <path d="M54.2667 59.4667H65.6667V64.5333H54.2667V59.4667Z" fill="#E6E6E6"/>
    <path d="M83 97H21C18.7909 97 17 98.7909 17 101V105C17 107.209 18.7909 109 21 109H83C85.2091 109 87 107.209 87 105V101C87 98.7909 85.2091 97 83 97Z" fill="#E6E6E6"/>
    <path d="M85 114H19C17.8954 114 17 114.895 17 116C17 117.105 17.8954 118 19 118H85C86.1046 118 87 117.105 87 116C87 114.895 86.1046 114 85 114Z" fill="#E6E6E6"/>
    <path d="M85 123H19C17.8954 123 17 123.895 17 125C17 126.105 17.8954 127 19 127H85C86.1046 127 87 126.105 87 125C87 123.895 86.1046 123 85 123Z" fill="#E6E6E6"/>
    <path d="M85 132H19C17.8954 132 17 132.895 17 134C17 135.105 17.8954 136 19 136H85C86.1046 136 87 135.105 87 134C87 132.895 86.1046 132 85 132Z" fill="#E6E6E6"/>
    <path d="M85 141H19C17.8954 141 17 141.895 17 143C17 144.105 17.8954 145 19 145H85C86.1046 145 87 144.105 87 143C87 141.895 86.1046 141 85 141Z" fill="#E6E6E6"/>
    <path d="M62 150H19C17.8954 150 17 150.895 17 152C17 153.105 17.8954 154 19 154H62C63.1046 154 64 153.105 64 152C64 150.895 63.1046 150 62 150Z" fill="#E6E6E6"/>
    </svg>
    