<svg width="375" height="202" viewBox="0 0 375 202" fill="none" xmlns="http://www.w3.org/2000/svg">
<rect width="375" height="202" fill="#1E1E1E"/>
<g clip-path="url(#clip0_0_1)">
<rect width="375" height="812" fill="white"/>
<rect width="375" height="202" fill="#F7C334"/>
<path d="M346.174 85.0517C355.774 75.0517 371.508 74.2184 378.174 75.0517C384.174 75.2659 396.674 87.5518 399.674 93.5518C402.074 98.3518 404.008 129.885 404.674 145.052L385.674 212.552L-11.8257 216.552L-13.3257 154.552L-11.8257 96.052C-19.159 74.552 -27.2257 31.2519 -0.825712 30.0519C32.1743 28.5519 48.1743 60.0519 49.6743 62.5519C51.1743 65.0519 56.1743 64.0519 58.6743 64.5519C60.6743 64.9519 66.1743 67.3852 68.6743 68.5519L73.1742 62.5519C72.6742 59.2186 77.7742 52.9519 102.174 54.5519C132.674 56.5519 142.174 81.5519 142.174 84.0519C142.174 86.5519 146.174 90.0519 149.174 88.5519C154.374 86.5519 162.007 87.7186 165.174 88.5519C166.841 89.2186 170.774 89.3519 173.174 84.5519C177.174 76.5519 184.674 67.0519 199.174 63.0519C213.674 59.0519 223.674 64.5519 230.174 68.5519C235.374 71.7519 238.341 69.5518 239.174 68.0518C242.841 61.2185 256.074 48.5518 279.674 52.5518C309.174 57.5518 313.174 82.0518 314.174 87.5518C314.974 91.9518 317.508 93.3851 318.674 93.5518C321.174 93.8851 327.274 94.7518 331.674 95.5518C337.174 96.5518 334.174 97.5517 346.174 85.0517Z" fill="#FFE6A3"/>
<path d="M90.6743 125.052V156.052V162.052H380.174V136.052H374.674V106.552H359.174V116.552H343.674V136.052H328.174V125.052H290.674V116.552H273.174V129.052H222.674V128.052V122.552V107.052H207.174V133.052H189.674V124.052H157.674V116.552H133.674V133.052H117.674V125.052H90.6743Z" fill="#8A6500"/>
<path d="M106.416 156.03C93.868 153.594 79.577 158.06 74 160.597L77.1371 179.881C97.8765 179.204 139.564 177.851 140.401 177.851C141.447 177.851 210.462 175.821 219.873 175.821C227.402 175.821 321.653 183.94 367.838 188L383 181.91L379.863 158.567C379.166 158.567 376.83 158.669 373.066 159.075C368.36 159.582 368.36 157.552 364.178 156.537C356.858 155.522 344.832 155.015 339.604 157.552C335.421 159.582 330.193 159.413 328.102 159.075C321.13 157.891 306.247 155.624 302.482 156.03C298.718 156.436 291.503 159.244 288.365 160.597H275.294L226.147 154C221.616 155.184 211.508 157.857 207.325 159.075C203.142 160.293 200.354 159.582 199.482 159.075C196.519 158.06 188.189 156.03 178.569 156.03C166.543 156.03 162.36 160.597 158.178 159.075C149.812 156.537 138.31 154 125.761 157.552C113.213 161.104 113.213 157.552 106.416 156.03Z" fill="#8ED190"/>
<path d="M-0.216925 165.338C-0.314727 165.363 -0.403393 165.128 -0.478516 164.727L-0.216925 165.338C0.336221 165.194 1.18158 156.718 1.52148 122.727C0.321484 94.7273 1.02148 86.394 1.52148 85.7273H11.0215C10.6882 95.394 10.0215 115.827 10.0215 120.227C10.0215 125.727 10.0215 157.227 11.0215 160.227C11.8215 162.627 12.0215 166.227 12.0215 167.727L8.52148 170.727L1.02148 168.227L-0.216925 165.338Z" fill="#67524E"/>
<path d="M6.02152 85.7274C4.42152 85.7274 -3.31182 89.0608 -6.97848 90.7274L-6.47848 70.7274H-4.47852L-5.47852 69.2273L-6.47848 66.2274C-10.6451 61.5607 -16.4785 53.2274 -6.47848 57.2274C6.02152 62.2274 8.52152 71.7274 9.02152 75.7274C29.5215 53.7274 50.5215 70.2274 51.0215 70.7274C51.5215 71.2274 48.0215 74.7274 44.0215 74.7274C40.8215 74.7274 30.6882 77.0608 26.0215 78.2274C31.1882 79.2274 42.5215 83.0274 46.5215 90.2274C51.5215 99.2274 54.0215 111.227 41.5215 99.2274C28.0215 87.7274 8.02152 85.7274 6.02152 85.7274Z" fill="#A4C959"/>
<path d="M53.7831 162.838C53.6853 162.863 53.5966 162.628 53.5215 162.227L53.7831 162.838C54.3362 162.694 55.1816 154.218 55.5215 120.227C54.3215 92.2273 55.0215 83.894 55.5215 83.2273H65.0215C64.6882 92.894 64.0215 113.327 64.0215 117.727C64.0215 123.227 64.0215 154.727 65.0215 157.727C65.8215 160.127 66.0215 163.727 66.0215 165.227L62.5215 168.227L55.0215 165.727L53.7831 162.838Z" fill="#67524E"/>
<path d="M22.0214 110.227C34.0214 94.2271 52.0214 87.2271 59.5214 85.7271C72.0213 86.727 85.0215 98.7273 90.0215 102.227C95.0215 105.727 101.521 117.227 101.021 106.227C100.521 95.2273 96.0215 89.7273 87.0215 83.7273C78.0215 77.7273 67.0215 80.7271 64.0215 82.2273C67.5215 76.7273 88.5215 67.7273 96.5215 67.7273C102.921 67.7273 102.855 65.7273 102.021 64.7273C100.188 62.394 94.0215 57.8273 84.0215 58.2273C71.5215 58.7273 62.5215 70.7273 61.5215 72.2273C56.0215 55.7273 37.5215 52.2273 33.5215 54.7273C29.5215 57.2273 32.5215 59.2273 34.5215 59.2273C36.5215 59.2273 47.5215 68.7273 48.5215 70.7273C29.0215 61.7273 18.0214 72.7273 15.0214 75.7273C12.0214 78.7273 10.5214 83.2271 18.0214 81.2271C25.5214 79.2271 37.0214 79.2271 41.0214 80.7271C32.5214 81.7271 23.5214 90.2271 20.5214 96.7271C17.5214 103.227 17.5214 113.227 22.0214 110.227Z" fill="#D3DD5D"/>
<path d="M34.1926 154.815L21.8519 181.134L-7.23704 182.279L-8.11852 182.279L-9 135.362C-9 134.599 -7.76593 133.073 -2.82963 133.073C18.3259 131.929 20.9704 144.516 22.7333 149.094C24.8489 154.586 31.2543 155.197 34.1926 154.815Z" fill="#97C455"/>
<path d="M93.2519 166.258C105.945 169.92 109.706 182.278 110 188L15.6815 182.279C16.563 175.413 22.0282 159.392 36.837 150.238C55.3482 138.795 65.9259 147.949 71.2148 152.526C76.5037 157.104 77.3852 161.681 93.2519 166.258Z" fill="#97C455"/>
<mask id="mask0_0_1" style="mask-type:alpha" maskUnits="userSpaceOnUse" x="-9" y="133" width="44" height="50">
<path d="M34.1926 154.815L21.8519 181.134L-7.23704 182.279L-8.11852 182.279L-9 135.362C-9 134.599 -7.76593 133.073 -2.82963 133.073C18.3259 131.929 20.9704 144.516 22.7333 149.094C24.8489 154.586 31.2543 155.197 34.1926 154.815Z" fill="#97C455"/>
</mask>
<g mask="url(#mask0_0_1)">
<path d="M3.34093 152.527C8.27723 143.372 18.3261 141.083 22.7335 141.083V128.496C22.7335 121.63 20.0889 125.063 18.3259 125.063C16.563 125.063 4.22223 122.774 2.45927 122.774H-9.88129C-12.5256 122.774 -16.9331 136.506 -17.8146 137.65C-18.6961 138.795 -19.5776 170.836 -9.88129 168.547C-0.184994 166.258 -2.82944 163.97 3.34093 152.527Z" fill="#D6E06D"/>
</g>
<mask id="mask1_0_1" style="mask-type:alpha" maskUnits="userSpaceOnUse" x="15" y="144" width="95" height="44">
<path d="M93.2519 166.258C105.945 169.92 109.706 182.278 110 188L15.6815 182.279C16.563 175.413 22.0282 159.392 36.837 150.238C55.3482 138.795 65.9259 147.949 71.2148 152.526C76.5037 157.104 77.3852 161.681 93.2519 166.258Z" fill="#97C455"/>
</mask>
<g mask="url(#mask1_0_1)">
<path d="M34.1926 185.711L12.1556 183.423C13.3309 179.99 15.6815 172.895 15.6815 171.98C15.6815 171.064 19.7951 160.918 21.8519 155.959L40.363 143.372C48.5901 141.846 65.3971 140.397 66.8074 146.805C48.4726 150.467 37.4247 174.268 34.1926 185.711Z" fill="#D6E06D"/>
</g>
<path d="M0 198C0 178.67 15.67 163 35 163H340C359.33 163 375 178.67 375 198V812H0V198Z" fill="white"/>
<rect x="20" y="188" width="50" height="50" rx="12" fill="white"/>
<path d="M50 203L40 213L50 223" stroke="#303030" stroke-width="2" stroke-linecap="round" stroke-linejoin="round"/>
<path d="M33.9081 26.2563C32.9413 26.2563 32.1186 25.9951 31.4399 25.4727C30.7612 24.9453 30.3437 24.2471 30.1874 23.3779H32.0697C32.1918 23.7783 32.4164 24.0957 32.7436 24.3301C33.0756 24.5596 33.4687 24.6743 33.9228 24.6743C34.6943 24.6743 35.2973 24.335 35.7319 23.6562C36.1664 22.9727 36.3837 22.0254 36.3837 20.8145H36.3178H36.2812H36.2592C36.0102 21.3174 35.6464 21.708 35.1679 21.9863C34.6894 22.2598 34.1401 22.3965 33.5199 22.3965C32.5141 22.3965 31.6816 22.0645 31.0224 21.4004C30.3681 20.7363 30.0409 19.8965 30.0409 18.8809C30.0409 17.7969 30.4071 16.9082 31.1396 16.2148C31.8769 15.5166 32.8193 15.1675 33.9667 15.1675C34.7382 15.1675 35.4218 15.3457 36.0175 15.7021C36.6132 16.0586 37.0893 16.5762 37.4457 17.2549C37.9438 18.1387 38.1928 19.252 38.1928 20.5947C38.1928 22.3721 37.8144 23.7612 37.0575 24.7622C36.3007 25.7583 35.2509 26.2563 33.9081 26.2563ZM32.4799 20.3164C32.8705 20.7021 33.3686 20.895 33.974 20.895C34.5795 20.895 35.08 20.7021 35.4755 20.3164C35.871 19.9307 36.0688 19.4424 36.0688 18.8516C36.0688 18.2559 35.8686 17.7554 35.4682 17.3501C35.0678 16.9448 34.5722 16.7422 33.9814 16.7422C33.3905 16.7422 32.8949 16.9424 32.4946 17.3428C32.0942 17.7383 31.894 18.2314 31.894 18.8223C31.894 19.4277 32.0893 19.9258 32.4799 20.3164ZM41.3457 24.8794C41.0039 24.8794 40.7231 24.7695 40.5034 24.5498C40.2837 24.3301 40.1738 24.0542 40.1738 23.7222C40.1738 23.3853 40.2837 23.1094 40.5034 22.8945C40.7231 22.6748 41.0039 22.5649 41.3457 22.5649C41.6923 22.5649 41.9731 22.6748 42.188 22.8945C42.4077 23.1094 42.5175 23.3853 42.5175 23.7222C42.5175 24.0542 42.4077 24.3301 42.188 24.5498C41.9731 24.7695 41.6923 24.8794 41.3457 24.8794ZM41.3457 19.3862C41.0039 19.3862 40.7231 19.2788 40.5034 19.064C40.2837 18.8442 40.1738 18.5684 40.1738 18.2363C40.1738 17.8994 40.2837 17.6235 40.5034 17.4087C40.7231 17.189 41.0039 17.0791 41.3457 17.0791C41.6923 17.0791 41.9731 17.189 42.188 17.4087C42.4077 17.6235 42.5175 17.8994 42.5175 18.2363C42.5175 18.5684 42.4077 18.8442 42.188 19.064C41.9731 19.2788 41.6923 19.3862 41.3457 19.3862ZM49.6548 26V24.0298H44.4912V22.3452C45.3506 20.7632 46.7861 18.4585 48.7979 15.4312H51.4639V22.4331H52.8921V24.0298H51.4639V26H49.6548ZM46.2417 22.3672V22.4771H49.6841V16.9692H49.5815C48.439 18.6587 47.3257 20.458 46.2417 22.3672ZM57.0557 26V17.3354H56.9312L54.3018 19.1812V17.3647L57.063 15.4312H58.9454V26H57.0557Z" fill="black"/>
<path fill-rule="evenodd" clip-rule="evenodd" d="M337.59 15.16H352.411C353.659 15.16 354.111 15.29 354.568 15.534C355.024 15.778 355.382 16.1362 355.626 16.5925C355.87 17.0487 356 17.5013 356 18.7495V23.0706C356 24.3187 355.87 24.7713 355.626 25.2276C355.382 25.6839 355.024 26.042 354.568 26.286C354.111 26.5301 353.659 26.66 352.411 26.66H337.59C336.341 26.66 335.889 26.5301 335.433 26.286C334.976 26.042 334.618 25.6839 334.374 25.2276C334.13 24.7713 334 24.3187 334 23.0706V18.7495C334 17.5013 334.13 17.0487 334.374 16.5925C334.618 16.1362 334.976 15.778 335.433 15.534C335.889 15.29 336.341 15.16 337.59 15.16ZM337.59 16.16C336.603 16.16 336.258 16.2266 335.904 16.4158C335.622 16.5667 335.407 16.782 335.256 17.064C335.067 17.4179 335 17.7625 335 18.7495V23.0706C335 24.0576 335.067 24.4021 335.256 24.756C335.407 25.038 335.622 25.2534 335.904 25.4042C336.258 25.5935 336.603 25.66 337.59 25.66H352.411C353.398 25.66 353.742 25.5935 354.096 25.4042C354.378 25.2534 354.593 25.038 354.744 24.756C354.934 24.4021 355 24.0576 355 23.0706V18.7495C355 17.7625 354.934 17.4179 354.744 17.064C354.593 16.782 354.378 16.5667 354.096 16.4158C353.742 16.2266 353.398 16.16 352.411 16.16H337.59ZM358.5 20.85C358.5 22.0866 357 22.85 357 22.85V18.85C357 18.85 358.5 19.6135 358.5 20.85Z" fill="black" fill-opacity="0.36"/>
<rect x="336" y="17" width="18" height="7.66667" rx="1.6" fill="black"/>
<path fill-rule="evenodd" clip-rule="evenodd" d="M305.623 16.5659C305.6 16.6818 305.6 16.8212 305.6 17.1V24.8C305.6 25.0788 305.6 25.2182 305.623 25.3341C305.718 25.8102 306.09 26.1823 306.566 26.277C306.682 26.3 306.821 26.3 307.1 26.3C307.379 26.3 307.518 26.3 307.634 26.277C308.11 26.1823 308.482 25.8102 308.577 25.3341C308.6 25.2182 308.6 25.0788 308.6 24.8V17.1C308.6 16.8212 308.6 16.6818 308.577 16.5659C308.482 16.0899 308.11 15.7178 307.634 15.6231C307.518 15.6 307.379 15.6 307.1 15.6C306.821 15.6 306.682 15.6 306.566 15.6231C306.09 15.7178 305.718 16.0899 305.623 16.5659ZM300.9 19.5C300.9 19.2212 300.9 19.0818 300.923 18.9659C301.018 18.4899 301.39 18.1178 301.866 18.0231C301.982 18 302.121 18 302.4 18C302.679 18 302.818 18 302.934 18.0231C303.41 18.1178 303.782 18.4899 303.877 18.9659C303.9 19.0818 303.9 19.2212 303.9 19.5V24.8C303.9 25.0788 303.9 25.2182 303.877 25.3341C303.782 25.8102 303.41 26.1823 302.934 26.277C302.818 26.3 302.679 26.3 302.4 26.3C302.121 26.3 301.982 26.3 301.866 26.277C301.39 26.1823 301.018 25.8102 300.923 25.3341C300.9 25.2182 300.9 25.0788 300.9 24.8V19.5ZM296.323 21.2659C296.3 21.3819 296.3 21.5212 296.3 21.8V24.8C296.3 25.0788 296.3 25.2182 296.323 25.3341C296.418 25.8102 296.79 26.1823 297.266 26.277C297.382 26.3 297.521 26.3 297.8 26.3C298.079 26.3 298.218 26.3 298.334 26.277C298.81 26.1823 299.182 25.8102 299.277 25.3341C299.3 25.2182 299.3 25.0788 299.3 24.8V21.8C299.3 21.5212 299.3 21.3819 299.277 21.2659C299.182 20.7899 298.81 20.4178 298.334 20.3231C298.218 20.3 298.079 20.3 297.8 20.3C297.521 20.3 297.382 20.3 297.266 20.3231C296.79 20.4178 296.418 20.7899 296.323 21.2659ZM291.523 23.2659C291.5 23.3819 291.5 23.5212 291.5 23.8V24.8C291.5 25.0788 291.5 25.2182 291.523 25.3341C291.618 25.8102 291.99 26.1823 292.466 26.277C292.582 26.3 292.721 26.3 293 26.3C293.279 26.3 293.418 26.3 293.534 26.277C294.01 26.1823 294.382 25.8102 294.477 25.3341C294.5 25.2182 294.5 25.0788 294.5 24.8V23.8C294.5 23.5212 294.5 23.3819 294.477 23.2659C294.382 22.7899 294.01 22.4178 293.534 22.3231C293.418 22.3 293.279 22.3 293 22.3C292.721 22.3 292.582 22.3 292.466 22.3231C291.99 22.4178 291.618 22.7899 291.523 23.2659Z" fill="black"/>
<path fill-rule="evenodd" clip-rule="evenodd" d="M321.301 17.6964C323.535 17.6965 325.684 18.555 327.303 20.0946C327.425 20.2135 327.62 20.212 327.74 20.0912L328.906 18.9148C328.967 18.8536 329.001 18.7707 329 18.6844C329 18.5981 328.965 18.5155 328.903 18.455C324.653 14.3817 317.947 14.3817 313.697 18.455C313.636 18.5155 313.601 18.598 313.6 18.6843C313.6 18.7706 313.633 18.8536 313.694 18.9148L314.86 20.0912C314.98 20.2121 315.175 20.2136 315.297 20.0946C316.917 18.5549 319.066 17.6964 321.301 17.6964ZM321.301 21.5238C322.528 21.5237 323.712 21.98 324.622 22.8041C324.745 22.921 324.939 22.9185 325.059 22.7983L326.223 21.6219C326.285 21.5602 326.319 21.4765 326.318 21.3895C326.317 21.3025 326.281 21.2195 326.219 21.1591C323.447 18.5813 319.156 18.5813 316.385 21.1591C316.322 21.2195 316.286 21.3026 316.286 21.3896C316.285 21.4766 316.319 21.5603 316.38 21.6219L317.544 22.7983C317.664 22.9185 317.858 22.921 317.981 22.8041C318.891 21.9806 320.074 21.5243 321.301 21.5238ZM323.538 24.3314C323.6 24.2703 323.635 24.1862 323.633 24.0989C323.631 24.0117 323.593 23.9291 323.529 23.8706C322.242 22.7827 320.359 22.7827 319.072 23.8706C319.008 23.929 318.97 24.0116 318.968 24.0989C318.966 24.1861 319 24.2702 319.063 24.3314L321.077 26.3639C321.136 26.4236 321.217 26.4572 321.301 26.4572C321.385 26.4572 321.465 26.4236 321.524 26.3639L323.538 24.3314Z" fill="black"/>
</g>
<defs>
<clipPath id="clip0_0_1">
<rect width="375" height="812" fill="white"/>
</clipPath>
</defs>
</svg>
